<svg width="1200" height="900" viewBox="0 0 1200 900" fill="none" xmlns="http://www.w3.org/2000/svg">
  <rect width="1200" height="900" fill="#050505"/>
  <rect x="76" y="72" width="1048" height="756" rx="24" fill="#0d0d0d" stroke="#2b2b2b" stroke-width="2"/>
  <path d="M86 620C236 560 329 588 454 612C590 638 721 659 889 592C984 554 1065 566 1114 590V828H86V620Z" fill="#111111"/>
  <path d="M198 106H1002L895 500H305L198 106Z" fill="#141414" stroke="#2c2c2c" stroke-width="2"/>
  <path d="M273 132L455 506" stroke="#FF6B35" stroke-opacity=".55" stroke-width="6"/>
  <path d="M927 132L745 506" stroke="#34D3C5" stroke-opacity=".58" stroke-width="6"/>
  <path d="M600 115V520" stroke="#D7FF63" stroke-opacity=".5" stroke-width="5"/>
  <circle cx="600" cy="494" r="94" fill="#D7FF63" fill-opacity=".12" stroke="#D7FF63" stroke-opacity=".7" stroke-width="3"/>
  <circle cx="600" cy="494" r="28" fill="#F7F7F2"/>
  <path d="M445 535C487 494 532 474 599 474C674 474 724 502 759 545" stroke="#F7F7F2" stroke-width="12" stroke-linecap="round"/>
  <path d="M374 579C435 529 507 505 599 505C704 505 780 537 831 590" stroke="#34D3C5" stroke-opacity=".85" stroke-width="10" stroke-linecap="round"/>
  <path d="M312 637C391 570 488 537 602 537C734 537 831 581 893 648" stroke="#FF6B35" stroke-opacity=".9" stroke-width="10" stroke-linecap="round"/>
  <g opacity=".95">
    <circle cx="225" cy="690" r="18" fill="#F7F7F2"/>
    <path d="M190 780C195 734 209 712 225 712C243 712 256 735 260 780H190Z" fill="#F7F7F2"/>
    <circle cx="305" cy="672" r="16" fill="#D7FF63"/>
    <path d="M274 762C279 719 291 695 306 695C322 695 334 720 338 762H274Z" fill="#D7FF63"/>
    <circle cx="386" cy="704" r="17" fill="#34D3C5"/>
    <path d="M352 794C357 747 370 726 386 726C403 726 416 750 421 794H352Z" fill="#34D3C5"/>
    <circle cx="807" cy="700" r="17" fill="#FF6B35"/>
    <path d="M774 791C779 746 791 723 807 723C824 723 837 747 842 791H774Z" fill="#FF6B35"/>
    <circle cx="895" cy="670" r="16" fill="#F7F7F2"/>
    <path d="M864 763C868 718 880 694 895 694C912 694 924 718 929 763H864Z" fill="#F7F7F2"/>
    <circle cx="976" cy="692" r="18" fill="#D7FF63"/>
    <path d="M941 783C946 737 959 714 976 714C994 714 1008 738 1012 783H941Z" fill="#D7FF63"/>
  </g>
  <path d="M76 72L1124 828" stroke="white" stroke-opacity=".04" stroke-width="2"/>
  <path d="M1124 72L76 828" stroke="white" stroke-opacity=".04" stroke-width="2"/>
</svg>
